# xmcd CD database file
#
# Track frame offsets:
#	182
#	39732
#	46870
#	88647
#	117565
#	122662
#	137782
#	146057
#	186372
#	200770
#	206177
#	225012
#	258655
#	274982
#	299290
#
# Disc length: 4035 seconds
#
# Revision: 0
# Processed by: cddbd v1.5.1PL0 Copyright (c) Steve Scherf et al.
# Submitted via: CDex 1.51
#
DISCID=f00fc10f
DTITLE=Babkas - Songlines
DYEAR=1993
DGENRE=Jazz
TTITLE0=Your sign here
TTITLE1=Stretch
TTITLE2=Clang
TTITLE3=Czugy Stodel
TTITLE4=Quaynophneky
TTITLE5=Hungarian Dance
TTITLE6=Piglet
TTITLE7=but first a cookie
TTITLE8=Walla
TTITLE9=Xin
TTITLE10=Tark Tooma
TTITLE11=PLAW
TTITLE12=Czbsh
TTITLE13=Jerry's birthday
TTITLE14=Big Bird Razor
EXTD=YEAR: 1993
EXTT0=
EXTT1=
EXTT2=
EXTT3=
EXTT4=
EXTT5=
EXTT6=
EXTT7=
EXTT8=
EXTT9=
EXTT10=
EXTT11=
EXTT12=
EXTT13=
EXTT14=
PLAYORDER=
